<?xml version="1.0" encoding="UTF-8" standalone="no"?>
<!DOCTYPE svg PUBLIC "-//W3C//DTD SVG 1.1//EN" "http://www.w3.org/Graphics/SVG/1.1/DTD/svg11.dtd">
<svg width="100%" height="100%" viewBox="0 0 1024 1024" version="1.1" xmlns="http://www.w3.org/2000/svg" xmlns:xlink="http://www.w3.org/1999/xlink" xml:space="preserve" xmlns:serif="http://www.serif.com/" style="fill-rule:evenodd;clip-rule:evenodd;stroke-linecap:round;stroke-linejoin:round;stroke-miterlimit:1.5;">
    <g transform="matrix(-0.240186,0.706675,1.18952,0.404298,-453.698,7.35252)">
        <path d="M844,761L441,761L441,959L844,959L818.277,860.493L844,761Z" style="fill:url(#_Linear1);stroke:rgb(5,166,162);stroke-width:3.83px;"/>
    </g>
    <g transform="matrix(0.240186,0.706675,-1.18952,0.404298,1484.65,5.35252)">
        <path d="M844,761L441,761L441,959L844,959L818.277,860.493L844,761Z" style="fill:url(#_Linear2);stroke:rgb(5,166,162);stroke-width:3.83px;"/>
    </g>
    <g transform="matrix(0.499043,0.461963,-0.461963,0.499043,487.552,-106.574)">
        <circle cx="511" cy="511" r="511" style="fill:rgb(185,220,237);"/>
    </g>
    <g transform="matrix(0.440522,0.408309,-0.408309,0.440522,491.844,-48.3623)">
        <circle cx="511" cy="511" r="511" style="fill:url(#_Linear3);"/>
    </g>
    <g id="レイヤー1">
        <g transform="matrix(0.560311,0,0,0.560311,140.925,73.0924)">
            <text x="238px" y="772px" style="font-family:'SFCompactRounded-Bold', 'SF Compact Rounded';font-weight:700;font-size:535.417px;fill:rgb(25,139,195);">100</text>
        </g>
        <g transform="matrix(0.560311,0,0,0.560311,125.67,51.7524)">
            <text x="238px" y="772px" style="font-family:'SFCompactRounded-Bold', 'SF Compact Rounded';font-weight:700;font-size:535.417px;fill:rgb(185,220,237);">100</text>
        </g>
    </g>
    <g transform="matrix(0.202674,-0.0904097,0.0682559,0.153011,252.238,502.922)">
        <path d="M1645,1545C1645,1545 1613.99,1497.92 1591,1483C1563,1464.83 1515.33,1445.33 1477,1436C1439.32,1426.83 1398.67,1426.5 1361,1427C1324.12,1427.49 1283.17,1430.83 1251,1439C1221.64,1446.45 1192.33,1461.5 1168,1476C1144.97,1489.72 1122,1515.67 1105,1526C1099.3,1529.46 1089,1528 1089,1528L897,1452L1049,1556L900,1669L1091,1581L1107,1579C1107,1579 1129.14,1596.44 1141,1604C1159.83,1616 1191.65,1639.38 1220,1651C1250.5,1663.5 1288.45,1674.01 1324,1679C1360.83,1684.17 1404.67,1685.33 1441,1682C1475.38,1678.85 1513.83,1669.83 1542,1659C1566.87,1649.44 1592.83,1636 1610,1617C1627.17,1598 1645,1545 1645,1545Z" style="fill:rgb(67,160,206);"/>
    </g>
    <g transform="matrix(0.112488,-0.191304,0.144427,0.0849244,369.39,621.059)">
        <path d="M1645,1545C1645,1545 1613.99,1497.92 1591,1483C1563,1464.83 1515.33,1445.33 1477,1436C1439.32,1426.83 1398.67,1426.5 1361,1427C1324.12,1427.49 1283.17,1430.83 1251,1439C1221.64,1446.45 1192.33,1461.5 1168,1476C1144.97,1489.72 1122,1515.67 1105,1526C1099.3,1529.46 1089,1528 1089,1528L897,1452L1049,1556L900,1669L1091,1581L1107,1579C1107,1579 1129.14,1596.44 1141,1604C1159.83,1616 1191.65,1639.38 1220,1651C1250.5,1663.5 1288.45,1674.01 1324,1679C1360.83,1684.17 1404.67,1685.33 1441,1682C1475.38,1678.85 1513.83,1669.83 1542,1659C1566.87,1649.44 1592.83,1636 1610,1617C1627.17,1598 1645,1545 1645,1545Z" style="fill:rgb(67,160,206);"/>
    </g>
    <g transform="matrix(-0.00456997,-0.189974,0.143424,-0.00345016,553.925,600.824)">
        <path d="M1645,1545C1645,1545 1613.99,1497.92 1591,1483C1563,1464.83 1515.33,1445.33 1477,1436C1439.32,1426.83 1398.67,1426.5 1361,1427C1324.12,1427.49 1283.17,1430.83 1251,1439C1221.64,1446.45 1192.33,1461.5 1168,1476C1144.97,1489.72 1122,1515.67 1105,1526C1099.3,1529.46 1089,1528 1089,1528L897,1452L1049,1556L900,1669L1091,1581L1107,1579C1107,1579 1129.14,1596.44 1141,1604C1159.83,1616 1191.65,1639.38 1220,1651C1250.5,1663.5 1288.45,1674.01 1324,1679C1360.83,1684.17 1404.67,1685.33 1441,1682C1475.38,1678.85 1513.83,1669.83 1542,1659C1566.87,1649.44 1592.83,1636 1610,1617C1627.17,1598 1645,1545 1645,1545Z" style="fill:rgb(67,160,206);"/>
    </g>
    <g transform="matrix(-0.0713643,-0.137879,0.104093,-0.0538774,659.019,482.043)">
        <path d="M1645,1545C1645,1545 1613.99,1497.92 1591,1483C1563,1464.83 1515.33,1445.33 1477,1436C1439.32,1426.83 1398.67,1426.5 1361,1427C1324.12,1427.49 1283.17,1430.83 1251,1439C1221.64,1446.45 1192.33,1461.5 1168,1476C1144.97,1489.72 1122,1515.67 1105,1526C1099.3,1529.46 1089,1528 1089,1528L897,1452L1049,1556L900,1669L1091,1581L1107,1579C1107,1579 1129.14,1596.44 1141,1604C1159.83,1616 1191.65,1639.38 1220,1651C1250.5,1663.5 1288.45,1674.01 1324,1679C1360.83,1684.17 1404.67,1685.33 1441,1682C1475.38,1678.85 1513.83,1669.83 1542,1659C1566.87,1649.44 1592.83,1636 1610,1617C1627.17,1598 1645,1545 1645,1545Z" style="fill:rgb(67,160,206);"/>
    </g>
    <g transform="matrix(-0.11288,-0.0685277,0.0517358,-0.0852201,714.22,364.603)">
        <path d="M1645,1545C1645,1545 1613.99,1497.92 1591,1483C1563,1464.83 1515.33,1445.33 1477,1436C1439.32,1426.83 1398.67,1426.5 1361,1427C1324.12,1427.49 1283.17,1430.83 1251,1439C1221.64,1446.45 1192.33,1461.5 1168,1476C1144.97,1489.72 1122,1515.67 1105,1526C1099.3,1529.46 1089,1528 1089,1528L897,1452L1049,1556L900,1669L1091,1581L1107,1579C1107,1579 1129.14,1596.44 1141,1604C1159.83,1616 1191.65,1639.38 1220,1651C1250.5,1663.5 1288.45,1674.01 1324,1679C1360.83,1684.17 1404.67,1685.33 1441,1682C1475.38,1678.85 1513.83,1669.83 1542,1659C1566.87,1649.44 1592.83,1636 1610,1617C1627.17,1598 1645,1545 1645,1545Z" style="fill:rgb(67,160,206);"/>
    </g>
    <g transform="matrix(-0.202674,-0.0904097,-0.0682559,0.153011,761.093,502.922)">
        <path d="M1645,1545C1645,1545 1613.99,1497.92 1591,1483C1563,1464.83 1515.33,1445.33 1477,1436C1439.32,1426.83 1398.67,1426.5 1361,1427C1324.12,1427.49 1283.17,1430.83 1251,1439C1221.64,1446.45 1192.33,1461.5 1168,1476C1144.97,1489.72 1122,1515.67 1105,1526C1099.3,1529.46 1089,1528 1089,1528L897,1452L1049,1556L900,1669L1091,1581L1107,1579C1107,1579 1129.14,1596.44 1141,1604C1159.83,1616 1191.65,1639.38 1220,1651C1250.5,1663.5 1288.45,1674.01 1324,1679C1360.83,1684.17 1404.67,1685.33 1441,1682C1475.38,1678.85 1513.83,1669.83 1542,1659C1566.87,1649.44 1592.83,1636 1610,1617C1627.17,1598 1645,1545 1645,1545Z" style="fill:rgb(67,160,206);"/>
    </g>
    <g transform="matrix(-0.112488,-0.191304,-0.144427,0.0849244,643.941,621.059)">
        <path d="M1645,1545C1645,1545 1613.99,1497.92 1591,1483C1563,1464.83 1515.33,1445.33 1477,1436C1439.32,1426.83 1398.67,1426.5 1361,1427C1324.12,1427.49 1283.17,1430.83 1251,1439C1221.64,1446.45 1192.33,1461.5 1168,1476C1144.97,1489.72 1122,1515.67 1105,1526C1099.3,1529.46 1089,1528 1089,1528L897,1452L1049,1556L900,1669L1091,1581L1107,1579C1107,1579 1129.14,1596.44 1141,1604C1159.83,1616 1191.65,1639.38 1220,1651C1250.5,1663.5 1288.45,1674.01 1324,1679C1360.83,1684.17 1404.67,1685.33 1441,1682C1475.38,1678.85 1513.83,1669.83 1542,1659C1566.87,1649.44 1592.83,1636 1610,1617C1627.17,1598 1645,1545 1645,1545Z" style="fill:rgb(67,160,206);"/>
    </g>
    <g transform="matrix(0.00456997,-0.189974,-0.143424,-0.00345016,459.405,600.824)">
        <path d="M1645,1545C1645,1545 1613.99,1497.92 1591,1483C1563,1464.83 1515.33,1445.33 1477,1436C1439.32,1426.83 1398.67,1426.5 1361,1427C1324.12,1427.49 1283.17,1430.83 1251,1439C1221.64,1446.45 1192.33,1461.5 1168,1476C1144.97,1489.72 1122,1515.67 1105,1526C1099.3,1529.46 1089,1528 1089,1528L897,1452L1049,1556L900,1669L1091,1581L1107,1579C1107,1579 1129.14,1596.44 1141,1604C1159.83,1616 1191.65,1639.38 1220,1651C1250.5,1663.5 1288.45,1674.01 1324,1679C1360.83,1684.17 1404.67,1685.33 1441,1682C1475.38,1678.85 1513.83,1669.83 1542,1659C1566.87,1649.44 1592.83,1636 1610,1617C1627.17,1598 1645,1545 1645,1545Z" style="fill:rgb(67,160,206);"/>
    </g>
    <g transform="matrix(0.0713643,-0.137879,-0.104093,-0.0538774,354.312,482.043)">
        <path d="M1645,1545C1645,1545 1613.99,1497.92 1591,1483C1563,1464.83 1515.33,1445.33 1477,1436C1439.32,1426.83 1398.67,1426.5 1361,1427C1324.12,1427.49 1283.17,1430.83 1251,1439C1221.64,1446.45 1192.33,1461.5 1168,1476C1144.97,1489.72 1122,1515.67 1105,1526C1099.3,1529.46 1089,1528 1089,1528L897,1452L1049,1556L900,1669L1091,1581L1107,1579C1107,1579 1129.14,1596.44 1141,1604C1159.83,1616 1191.65,1639.38 1220,1651C1250.5,1663.5 1288.45,1674.01 1324,1679C1360.83,1684.17 1404.67,1685.33 1441,1682C1475.38,1678.85 1513.83,1669.83 1542,1659C1566.87,1649.44 1592.83,1636 1610,1617C1627.17,1598 1645,1545 1645,1545Z" style="fill:rgb(67,160,206);"/>
    </g>
    <g transform="matrix(0.11288,-0.0685277,-0.0517358,-0.0852201,299.111,364.603)">
        <path d="M1645,1545C1645,1545 1613.99,1497.92 1591,1483C1563,1464.83 1515.33,1445.33 1477,1436C1439.32,1426.83 1398.67,1426.5 1361,1427C1324.12,1427.49 1283.17,1430.83 1251,1439C1221.64,1446.45 1192.33,1461.5 1168,1476C1144.97,1489.72 1122,1515.67 1105,1526C1099.3,1529.46 1089,1528 1089,1528L897,1452L1049,1556L900,1669L1091,1581L1107,1579C1107,1579 1129.14,1596.44 1141,1604C1159.83,1616 1191.65,1639.38 1220,1651C1250.5,1663.5 1288.45,1674.01 1324,1679C1360.83,1684.17 1404.67,1685.33 1441,1682C1475.38,1678.85 1513.83,1669.83 1542,1659C1566.87,1649.44 1592.83,1636 1610,1617C1627.17,1598 1645,1545 1645,1545Z" style="fill:rgb(67,160,206);"/>
    </g>
    <defs>
        <linearGradient id="_Linear1" x1="0" y1="0" x2="1" y2="0" gradientUnits="userSpaceOnUse" gradientTransform="matrix(403,0,0,198,441,860)"><stop offset="0" style="stop-color:rgb(9,119,139);stop-opacity:1"/><stop offset="0.33" style="stop-color:rgb(3,172,187);stop-opacity:1"/><stop offset="1" style="stop-color:rgb(9,79,99);stop-opacity:1"/></linearGradient>
        <linearGradient id="_Linear2" x1="0" y1="0" x2="1" y2="0" gradientUnits="userSpaceOnUse" gradientTransform="matrix(403,0,0,198,441,860)"><stop offset="0" style="stop-color:rgb(9,119,139);stop-opacity:1"/><stop offset="0.33" style="stop-color:rgb(3,172,187);stop-opacity:1"/><stop offset="1" style="stop-color:rgb(9,79,99);stop-opacity:1"/></linearGradient>
        <linearGradient id="_Linear3" x1="0" y1="0" x2="1" y2="0" gradientUnits="userSpaceOnUse" gradientTransform="matrix(1022,0,0,1022,0,511)"><stop offset="0" style="stop-color:white;stop-opacity:1"/><stop offset="0.49" style="stop-color:rgb(79,166,209);stop-opacity:1"/><stop offset="1" style="stop-color:rgb(22,138,194);stop-opacity:1"/></linearGradient>
    </defs>
</svg>
